<svg width="538" height="452" fill="none" xmlns="http://www.w3.org/2000/svg"><g clip-path="url(#clip0_1263_278004)"><path d="M55.633 361.571c-132.15-87.858 1.833-263.201 85.283-331.846C224.367-38.921 415.932.942 528.138 259.529c63.127 145.481-186.46 292.217-472.505 102.042z" fill="#FFF9F5"/><path d="M197.223 283.06h102.784a4 4 0 013.975 3.552l10.012 88.96a4 4 0 01-3.974 4.448H197.223a4 4 0 01-4-4v-88.96a4 4 0 014-4z" fill="#E1EAF0"/><path d="M105.27 106.281l44.068-39.524 61.853 70.699.028 3.849-3.847 3.337-6.142-10.655-3.457 1.937v6.781l3.457 7.264-31.935 27.7-64.025-71.388z" fill="#fff"/><path d="M109.44 169.441c-2.818 2.407-1.632 4.572-.039 6.437 1.592 1.866 4 3.618 6.818 1.211 2.818-2.406 4.262-5.291 2.669-7.156-1.593-1.866-6.63-2.898-9.448-.492z" fill="#B7EB6E"/><path d="M263.452 219.81c-2.818 2.406-1.632 4.572-.039 6.437 1.592 1.865 4 3.617 6.818 1.211 2.818-2.406 4.261-5.291 2.669-7.157-1.593-1.865-6.63-2.897-9.448-.491zm184.103-53.843c-2.818 2.406-2.838 5.252-1.245 7.118 1.592 1.865 3.893 1.13 6.282-.193 2.552-1.414 4.798-3.888 3.205-5.753-1.593-1.865-5.424-3.579-8.242-1.172z" fill="#7BB5FB"/><path d="M456.917 326.665c-19.901-43.591-33.715-31.756-33.587-45.984.252-28.068 67.475-6.613 78.809 41.059 5.439 22.878-24.721 49.833-45.222 4.925z" fill="#FFDDBF"/><path d="M162.721 240.354c1.064 6.446.392 12.814-1.697 18.703-.856 2.41 9.893 12.404 9.253 13.826-.641 1.421-15.39-2.459-17.14-.453-6.8 7.793-16.61 13.479-28.094 15.374-24.467 4.037-47.267-10.661-50.925-32.829-3.658-22.169 13.21-43.413 37.678-47.45 24.467-4.038 47.267 10.661 50.925 32.829z" fill="#fff"/><path d="M118.128 112.385l25.514 29.645c1.697 1.972 4.85 1.603 6.046-.708l18.769-36.257a7.347 7.347 0 00-.957-8.17l-13.35-15.512a7.347 7.347 0 00-10.361-.776l-24.885 21.417a7.348 7.348 0 00-.776 10.361z" fill="#FFBF00"/><path d="M405.858 321.913c-13.623-1.629-28.73-6.151-42.47-11.187-2.339-.856-6.276-3.791-8.773-1.825-1.889 1.482-.836 4.836.164 6.512 2.041 3.413 6.012 5.255 9.563 6.63 7.615 2.952 15.482 4.906 23.355 6.89" stroke="#071D2B" stroke-width="1.5" stroke-miterlimit="10" stroke-linecap="round" stroke-linejoin="round"/><path d="M352.047 268.461l-4.77 2.91m7.602 8.924l-6.129-.907m-7.889-13.017l2.014-5.881" stroke="#071D2B" stroke-width="1.5" stroke-linecap="round" stroke-linejoin="round"/><path d="M47.154 328.442c17.851-15.119 39.112-9.623 51.483 4.535-11.318 7.102-20.63 17.144-24.759 30.044-2.965 9.298.304 23.656 10.435 27.033 10.996 3.684 18.839-7.249 22.179-16.388 5.504-15.085 1.246-30.24-7.855-40.684 8.82-5.549 18.851-9.286 28.607-11.217.175-.029.345-.071.521-.1 18.906-3.612 36.594-.551 54.126 5.467m134.539 64.509h69.562c3.084-.036 5.99-3.017 5.99-6.156v-3.669c0-3.139-2.913-5.709-5.99-5.672l-51.122-.001" stroke="#071D2B" stroke-width="1.5" stroke-miterlimit="10" stroke-linecap="round" stroke-linejoin="round"/><path d="M181.795 276.567a6 6 0 016-6.004h140.07a6 6 0 016 6v109.078a6 6 0 01-6 6H187.872a6 6 0 01-6-5.996l-.077-109.078z" stroke="#071D2B" stroke-width="1.5"/><path d="M181.795 276.567a6 6 0 016-6.004h130.384a6 6 0 016 6v109.078a6 6 0 01-6 6H187.867a6 6 0 01-6-5.996l-.072-109.078z" stroke="#071D2B" stroke-width="1.5"/><path d="M337.404 181.063c3.727 20.728 13.222 37.776 33.555 54.776 35.46 29.647 113.726 46.832 116.92 92.185.967 13.733-8.434 25.569-20.377 31.597-6.698 3.383-13.336 4.292-19.723 3.512-8.206-.974-15.997-4.746-22.916-9.67-5.545-3.944-10.195-9.056-16.073-12.551-6.814-4.05-13.348-3.383-20.08.549-4.942 2.969-15.032 9.906-21.15 8.761-2.737-.508-6.334-2.149-6.24-5.821.064-3.159 3.901-3.832 6.211-4.641 8.376-2.916 15.751-8.312 23.396-12.752 5.089-2.952 11.078-6.081 17.102-4.841 9.593 1.995 22.308 10.904 27.081 15.22 5.463 5.603 10.405 11.997 12.09 19.878.427 1.978.602 3.932.573 5.874-.187 15.457-13.575 33.547-26.279 40.567-18.371 11.182-41.471 12.276-67.971 8.59-22.75-3.164-36.123-9.516-54.961-20.944M26.037 290.323a5.037 5.037 0 100-10.074 5.037 5.037 0 000 10.074z" stroke="#071D2B" stroke-width="1.5" stroke-miterlimit="10" stroke-linecap="round" stroke-linejoin="round"/><path d="M99.521 257.002h21.65c1.541 0 2.503-1.67 1.73-3.003l-13.411-23.122a2 2 0 00-1.73-.996h-8.239a2 2 0 00-2 2v23.121a2 2 0 002 2z" fill="#B7EB6E"/><path d="M50.447 195.01v6.296m0 7.556v6.296m10.073-10.074h-6.296m-7.555 0h-6.296m435.88 31.577a3.875 3.875 0 100-7.75 3.875 3.875 0 000 7.75z" stroke="#071D2B" stroke-width="1.5" stroke-miterlimit="10" stroke-linecap="round" stroke-linejoin="round"/><path d="M92.995 234.173l.016-1.943c.028-3.437 2.825-6.201 6.246-6.172l32.343.269c3.422.028 6.172 2.838 6.143 6.275l-.016 1.944m-44.733-.373l44.733.373m-44.733-.373l-.062 7.511m44.795-7.138l-.062 7.51-44.733-.372m0 0l-.107 12.861c-.029 3.437 2.722 6.246 6.143 6.275l24.186.201m9.609-2.585l2.224 2.161a1.765 1.765 0 002.433.027l4.896-4.552m-5.685 16.188c-6.271-3.5-10.607-7.43-10.537-15.838.038-2.44.04-4.881.06-7.322l11.481-3.303 11.424 3.494c-.021 2.441-.059 4.881-.061 7.322-.07 8.407-4.472 12.265-10.8 15.66a1.756 1.756 0 01-1.567-.013z" stroke="#071D2B" stroke-width="1.5" stroke-linecap="round" stroke-linejoin="round"/><circle cx="253.953" cy="329.165" r="13.076" stroke="#071D2B" stroke-width="1.5" stroke-miterlimit="10" stroke-linecap="round" stroke-linejoin="round"/><path d="M207.687 173.971c2.287-5.763 3.524-14.283 2.01-21.564-.756-3.617-2.033-7.136-3.654-10.485-1.071-2.221-2.64-4.401-3.793-6.7l-.871-1.302c-3.014-.489-4.378 3.375-4.035 5.634.462 7.782 6.957 9.303 5.685 20.447m6.04 9.734c-3.169 11.371-17.106 20.917-23.887 39.32-6.78 18.404.001 46.979 29.758 61.024m87.051-36.01c5.346 7.509 17.91 16.88 36.673 16.88s61.701-10.703 51.238-47.469c36.277 2.767 53.185-51.27 14.87-61.559-38.315-10.288-47.662-29.435-54.37-46.6-6.912-17.687-26.452-27.961-45.509-26.778-11.935.74-21.362 8.217-21.711 20.716-.33 11.498 10.676 18.12 19.916 22.087 3.74 1.608 7.747 2.536 11.633 3.712 8.815 2.669 17.396 6.654 18.706 16.806.136 1.058.193 2.142.173 3.237m-10.571 18.982c6.669-3.504 10.432-11.488 10.571-18.982m-33.212-65.936c-44.213 6.753-56.176 81.752-36.028 97.139 20.147 15.388 31.26 8.506 36.801 21.347 7.723 22.34 3.578 40.817.539 47.263-2.563 6.102-14.607 18.067-42.274 17.116-21.553-.442-39.534-9.573-45.83-14.083-22.208-16.429-29.708-45.104-30.66-71.643m150.664-31.203s4.424-6.926 10.72-6.296c6.296.63 8.814 8.185 6.072 13.117-2.373 4.268-5.587 6.652-8.45 11.438m-4.548 27.703c-1.616-7.962-.669-14.862 1.306-20.596" stroke="#071D2B" stroke-width="1.5" stroke-linecap="round"/><path d="M274.751 111.516c3.541-.153 7.469.678 10.23 3.099 3.229 2.821 3.34 6.9 2.197 10.835-1.21 4.164-2.683 8.184-3.602 12.424-.463 2.155 2.318 2.946 3.939 3.103m-7.075-14.889c-.917-4.4-8.861-6.873-12.476-3.162m32.725 28.626c-11.868 2.524-24.409.331-33.284-8.268m42.174-10.109c-1.109-4.479-9.956-6.985-13.892-3.207M141.823 74.013l5.997-5.16a4 4 0 015.641.422l57.851 67.217a4 4 0 01-.426 5.645l-3.18 2.732m-65.883-70.856l-11.666 10.041m11.666-10.041l55.496 64.48m-4.101 18.832c-6.884 5.92-15.301 12.963-21.382 18.151a4.033 4.033 0 01-5.661-.413c-16.918-19.43-42.148-46.483-59.064-65.911-1.45-1.666-1.254-4.184.42-5.625l22.626-19.473m63.061 73.271l-63.061-73.27m63.061 73.27l8.192-7.045m-57.034-22.314v0a1.688 1.688 0 01-2.381-.178l-3.081-3.58a1.687 1.687 0 01.178-2.381v0a1.69 1.69 0 012.381.178l3.081 3.58a1.688 1.688 0 01-.178 2.381zm-7.614-8.846v0a1.688 1.688 0 01-2.381-.179l-13.776-16.005a1.69 1.69 0 01.179-2.382v0a1.689 1.689 0 012.381.179l13.775 16.006a1.687 1.687 0 01-.178 2.381z" stroke="#071D2B" stroke-width="1.5" stroke-miterlimit="10" stroke-linecap="round" stroke-linejoin="round"/><path d="M162.847 159.01a3.394 3.394 0 105.143-4.429 3.394 3.394 0 00-5.143 4.429zM151.506 48.369l-.243 12.638m15.802-4.441l-8.267 7.115m-22.529-9.394l7.115 8.268" stroke="#071D2B" stroke-width="1.5" stroke-miterlimit="10" stroke-linecap="round" stroke-linejoin="round"/><path d="M162.721 240.354c1.064 6.446.392 12.814-1.697 18.703-.856 2.41 9.893 12.404 9.253 13.826-.641 1.421-15.39-2.459-17.14-.453-6.8 7.793-16.61 13.479-28.094 15.374-24.467 4.037-47.267-10.661-50.925-32.83-3.658-22.168 13.21-43.412 37.678-47.449 24.467-4.038 47.267 10.66 50.925 32.829z" stroke="#071D2B" stroke-width="1.5" stroke-linecap="round" stroke-linejoin="round"/><path d="M340.646 161.108a3.874 3.874 0 100-7.75 3.874 3.874 0 000 7.75z" stroke="#071D2B" stroke-width="1.5" stroke-miterlimit="10" stroke-linecap="round" stroke-linejoin="round"/></g><defs><clipPath id="clip0_1263_278004"><path fill="#fff" d="M0 0h538v452H0z"/></clipPath></defs></svg>