<svg xmlns="http://www.w3.org/2000/svg" version="1.1" xmlns:xlink="http://www.w3.org/1999/xlink" xmlns:svgjs="http://svgjs.dev/svgjs" width="1440" height="250" preserveAspectRatio="none" viewBox="0 0 1440 250"><g mask="url(&quot;#SvgjsMask1003&quot;)" fill="none"><rect width="1440" height="250" x="0" y="0" fill="rgba(199, 212, 227, 1)"></rect><path d="M7 250L257 0L524 0L274 250z" fill="url(&quot;#SvgjsLinearGradient1004&quot;)"></path><path d="M274.6 250L524.6 0L866.6 0L616.6 250z" fill="url(&quot;#SvgjsLinearGradient1004&quot;)"></path><path d="M494.20000000000005 250L744.2 0L820.7 0L570.7 250z" fill="url(&quot;#SvgjsLinearGradient1004&quot;)"></path><path d="M742.8000000000001 250L992.8000000000001 0L1234.3000000000002 0L984.3000000000001 250z" fill="url(&quot;#SvgjsLinearGradient1004&quot;)"></path><path d="M1401 250L1151 0L851 0L1101 250z" fill="url(&quot;#SvgjsLinearGradient1005&quot;)"></path><path d="M1178.4 250L928.4000000000001 0L734.9000000000001 0L984.9000000000001 250z" fill="url(&quot;#SvgjsLinearGradient1005&quot;)"></path><path d="M951.8 250L701.8 0L592.3 0L842.3 250z" fill="url(&quot;#SvgjsLinearGradient1005&quot;)"></path><path d="M711.1999999999999 250L461.19999999999993 0L186.69999999999993 0L436.69999999999993 250z" fill="url(&quot;#SvgjsLinearGradient1005&quot;)"></path><path d="M1191.204563772542 250L1440 1.2045637725421727L1440 250z" fill="url(&quot;#SvgjsLinearGradient1004&quot;)"></path><path d="M0 250L248.79543622745783 250L 0 1.2045637725421727z" fill="url(&quot;#SvgjsLinearGradient1005&quot;)"></path></g><defs><mask id="SvgjsMask1003"><rect width="1440" height="250" fill="#ffffff"></rect></mask><linearGradient x1="0%" y1="100%" x2="100%" y2="0%" id="SvgjsLinearGradient1004"><stop stop-color="rgba(15, 70, 185, 0.2)" offset="0"></stop><stop stop-opacity="0" stop-color="rgba(15, 70, 185, 0.2)" offset="0.66"></stop></linearGradient><linearGradient x1="100%" y1="100%" x2="0%" y2="0%" id="SvgjsLinearGradient1005"><stop stop-color="rgba(15, 70, 185, 0.2)" offset="0"></stop><stop stop-opacity="0" stop-color="rgba(15, 70, 185, 0.2)" offset="0.66"></stop></linearGradient></defs></svg>